<?xml version="1.0" encoding="utf-8" ?>
<svg xmlns="http://www.w3.org/2000/svg" xmlns:xlink="http://www.w3.org/1999/xlink" width="1024" height="1024">
	<path transform="scale(2 2)" d="M348.44 97.7102C348.806 85.6219 371.336 85.9484 369.674 98.8921C366.174 107.373 350.802 106.844 348.44 97.7102Z"/>
	<path transform="scale(2 2)" d="M146.258 323.804C156.931 324.317 155.437 332.867 154.878 341.656C154.624 345.646 152.568 347.203 149.215 348.66C145.682 349.058 142.368 348.066 140.945 344.51C138.669 338.823 138.285 326.56 146.258 323.804Z"/>
	<path transform="scale(2 2)" d="M148 116.533L147.326 116.445C142.267 115.825 138.393 112.259 139.548 106.737C142.81 91.138 156.317 89.5624 169.521 89.4936C175.94 89.4602 186.515 89.3054 183.867 98.8921C178.515 111.589 159.543 97.9519 154.693 108.344C152.924 112.135 152.414 115.135 148 116.533Z"/>
	<path transform="scale(2 2)" d="M390.638 413.924C392.058 401.146 411.132 411.287 418.277 405.242C424.767 399.753 416.272 388.189 428.834 386.525C444.278 391.945 435.081 418.623 416.084 421.615C407.846 422.913 391.475 425.491 390.638 413.924Z"/>
	<path transform="scale(2 2)" d="M391.744 98.8921C391.101 87.5579 400.531 89.3714 408.88 89.437C427.312 89.5819 436.089 97.5138 436.256 116.513L436.246 131.415C436.283 139.165 438.448 150.989 427.992 152.438C419.597 150.592 421.048 145.023 421.171 138.144C421.273 132.462 422.046 111.326 419.932 107.447C415.281 98.9117 397.935 110.516 391.744 98.8921Z"/>
	<path transform="scale(2 2)" d="M206.745 96.8953C208.925 85.2637 226.643 89.5001 236.732 89.5004L308.236 89.4938C315 89.492 325.213 87.4595 324.718 97.7102C322.599 106.232 315.148 104.29 308.389 104.288L237.685 104.281C230.099 104.282 222.379 104.61 214.807 104.304C209.734 104.098 207.846 101.814 206.745 96.8953Z"/>
	<path transform="scale(2 2)" d="M426.953 175.342C441.136 174.14 436.257 202.993 436.256 212.776L436.266 339.958C436.27 346.663 437.824 359.124 426.953 357.136C423.77 356.039 422.365 354.332 421.208 351.119L421.225 196.19C421.238 188.178 418.335 178.685 426.953 175.342Z"/>
	<path transform="scale(2 2)" d="M313.67 415.349C311.203 424.213 303.271 422.201 296.038 422.186L181.419 422.178C151.988 422.173 139.831 422.024 139.75 389.633C139.732 382.473 138.995 373.178 149.215 375.407C162.765 381.222 146.17 403.807 161.99 407.784C165.512 408.043 169.22 407.786 172.762 407.785L194.837 407.784L294.024 407.774C301.042 407.769 312.583 405.569 313.67 415.349Z"/>
	<path fill="white" transform="scale(2 2)" d="M206.745 96.8953C207.846 101.814 209.734 104.098 214.807 104.304C222.379 104.61 230.099 104.282 237.685 104.281L308.389 104.288C315.148 104.29 322.599 106.232 324.718 97.7102C330.224 97.4618 346.02 95.8709 348.926 101.485L348.99 101.247L349.124 101.578L348.954 101.119C348.509 99.8915 348.4 99.0321 348.44 97.7102C350.802 106.844 366.174 107.373 369.674 98.8921L371.477 98.3654C374.843 97.3533 386.158 97.0618 389.171 98.6697C390.882 99.583 391.907 101.54 393.534 102.646L393.691 102.588L393.428 102.317C392.581 101.431 391.38 100.23 391.744 98.8921C397.935 110.516 415.281 98.9117 419.932 107.447C422.046 111.326 421.273 132.462 421.171 138.144C421.048 145.023 419.597 150.592 427.992 152.438C424.928 153.337 426.994 152.476 427.484 155.015C428.372 159.624 429.187 171.019 426.953 175.342C418.335 178.685 421.238 188.178 421.225 196.19L421.208 351.119C422.365 354.332 423.77 356.039 426.953 357.136C428.675 365.002 427.912 377.839 428.834 386.525C416.272 388.189 424.767 399.753 418.277 405.242C411.132 411.287 392.058 401.146 390.638 413.924C390.189 413.675 363.326 413.924 360.284 413.924C359.323 423.686 345.71 424.965 344.636 414.532C343.498 413.176 314.348 413.718 313.894 413.957L313.67 415.349C312.583 405.569 301.042 407.769 294.024 407.774L194.837 407.784L172.762 407.785C169.22 407.786 165.512 408.043 161.99 407.784C146.17 403.807 162.765 381.222 149.215 375.407C149.569 374.855 149.714 350.197 149.215 348.66C152.568 347.203 154.624 345.646 154.878 341.656C155.437 332.867 156.931 324.317 146.258 323.804C146.842 320.656 146.022 314.029 146.258 310.268C127.684 310.294 109.476 312.423 93.8981 299.93C77.9311 287.124 75.7286 273.736 75.7545 255.149L75.7188 223.943C75.6927 217.513 74.7525 211.021 83.2638 210.199L83.2638 189.354C67.1025 188.367 72.7653 129.18 119.613 125.166C123.36 124.845 127.197 125.005 130.957 125.007L148 125.022C147.675 122.826 147.501 120.046 147.841 117.853C148.283 120.097 148.011 122.727 148 125.022C154.583 124.436 149.624 121.87 149.25 119.753C148.887 117.696 151.775 116.879 148 116.533C152.414 115.135 152.924 112.135 154.693 108.344C159.543 97.9519 178.515 111.589 183.867 98.8921C188.981 96.9708 202.399 95.8853 206.896 100.417L206.969 100.029L206.972 100.47C207.342 99.4264 206.635 98.0507 206.745 96.8953Z"/>
	<path transform="scale(2 2)" d="M288.89 289.382C282.209 287.619 278.965 282.282 283.906 276.301C287.979 271.372 299.663 259.721 304.623 255.533C320.153 242.417 332.524 257.234 342.473 267.353L388.657 313.597C394.331 319.221 406.059 326.912 401.614 335.47C394.916 342.286 389.865 336.006 384.969 331.195C366.182 312.731 348.15 293.503 329.26 275.135C326.979 272.837 320.893 265.757 317.789 265.876C310.01 266.175 299.384 287.832 288.89 289.382Z"/>
	<path fill="#BCDEF6" transform="scale(2 2)" d="M288.89 289.382C299.384 287.832 310.01 266.175 317.789 265.876C320.893 265.757 326.979 272.837 329.26 275.135C348.15 293.503 366.182 312.731 384.969 331.195C389.865 336.006 394.916 342.286 401.614 335.47C409.098 339.783 414.209 346.584 421.208 351.119C422.365 354.332 423.77 356.039 426.953 357.136C428.675 365.002 427.912 377.839 428.834 386.525C416.272 388.189 424.767 399.753 418.277 405.242C411.132 411.287 392.058 401.146 390.638 413.924C390.189 413.675 363.326 413.924 360.284 413.924C359.323 423.686 345.71 424.965 344.636 414.532C343.498 413.176 314.348 413.718 313.894 413.957L313.67 415.349C312.583 405.569 301.042 407.769 294.024 407.774L194.837 407.784L172.762 407.785C169.22 407.786 165.512 408.043 161.99 407.784L165.345 407.784C161.193 392.417 171.647 385.652 180.369 375.407C175.026 366.029 183.055 361.669 189.162 355.823C195.664 349.599 202.065 343.209 208.337 336.751C218.534 326.252 225.182 323.639 237.257 333.823C246.191 326.667 252.043 313.705 264.354 312.361C267.553 311.795 283.073 294.234 288.89 289.382Z"/>
	<path transform="scale(2 2)" d="M344.636 414.532C344.999 404.146 356.851 402.993 360.284 413.924C359.323 423.686 345.71 424.965 344.636 414.532Z"/>
	<path fill="#5EABE7" transform="scale(2 2)" d="M288.89 289.382C299.384 287.832 310.01 266.175 317.789 265.876C320.893 265.757 326.979 272.837 329.26 275.135C319.46 279.107 309.613 290.819 302.032 297.956C296.672 303.002 282.803 315.038 278.869 320.763C275.051 315.989 270.766 312.623 264.354 312.361C267.553 311.795 283.073 294.234 288.89 289.382Z"/>
	<path fill="#5EABE7" transform="scale(2 2)" d="M180.369 375.407C190.796 380.96 196.588 370.113 203.475 363.024C210.323 355.976 217.282 349.041 224.232 342.092C227.294 345.214 230.779 347.77 233.646 351.119C226.043 356.697 213.769 370.899 207.046 377.971C196.516 389.048 191.283 390.89 194.837 407.784L172.762 407.785C169.22 407.786 165.512 408.043 161.99 407.784L165.345 407.784C161.193 392.417 171.647 385.652 180.369 375.407Z"/>
	<path transform="scale(2 2)" d="M307.204 321.412C308.809 319.232 309.596 316.799 310.757 314.38C314.916 305.719 327.727 303.465 335.28 308.923C338.598 311.32 349.661 327.06 353.296 331.685C356.81 336.155 364.421 341.761 359.635 347.99C350.556 359.805 336.157 334.419 331.754 328.27C327.835 322.797 326.219 316.593 322.426 325.296C314.537 343.399 304.634 332.87 294.625 336.235C283.934 339.83 283.851 345.013 273.066 335.47C267.446 340.676 261.894 345.962 256.229 351.119C259.508 354.442 270.197 363.513 270.765 367.869C271.306 372.012 267.857 375.844 263.766 376.133C257.96 376.543 239.144 355.687 233.646 351.119C230.779 347.77 227.294 345.214 224.232 342.092C217.282 349.041 210.323 355.976 203.475 363.024C196.588 370.113 190.796 380.96 180.369 375.407C175.026 366.029 183.055 361.669 189.162 355.823C195.664 349.599 202.065 343.209 208.337 336.751C218.534 326.252 225.182 323.639 237.257 333.823C246.191 326.667 252.043 313.705 264.354 312.361C270.766 312.623 275.051 315.989 278.869 320.763C280.473 321.928 281.791 323.082 283.053 324.631C291.928 319.995 297.411 320.11 307.204 321.412Z"/>
	<path fill="#5EABE7" transform="scale(2 2)" d="M264.354 327.84C267.465 330.162 270.346 332.702 273.066 335.47C267.446 340.676 261.894 345.962 256.229 351.119C253.747 348.729 251.242 346.364 248.882 343.854C253.524 338.163 259.282 333.168 264.354 327.84Z"/>
	<path fill="#FEC302" transform="scale(2 2)" d="M83.2638 189.354C67.1025 188.367 72.7653 129.18 119.613 125.166C123.36 124.845 127.197 125.005 130.957 125.007L148 125.022L198.582 125.023C209.571 125.023 225.846 124.033 236.153 126.647C266.005 134.219 272.495 158.439 272.495 184.773L272.484 262.983C272.371 276.584 267.77 288.435 258.018 298.055C242.634 313.23 220.195 310.285 200.465 310.273L146.258 310.268C127.684 310.294 109.476 312.423 93.8981 299.93C77.9311 287.124 75.7286 273.736 75.7545 255.149L75.7188 223.943C75.6927 217.513 74.7525 211.021 83.2638 210.199L83.2638 189.354Z"/>
	<path transform="scale(2 2)" d="M216.598 205.78C219.789 205.514 223.841 206.25 225.291 209.538C227.274 214.034 226.393 255.417 225.419 257.691C224.432 259.997 222.691 261.168 220.465 262.104C217.09 262.848 213.221 261.393 211.789 258.095C210.748 255.696 211.002 217.526 211.244 212.592C211.426 208.882 213.028 207.08 216.598 205.78Z"/>
	<path transform="scale(2 2)" d="M214.581 151.085C243.979 146.638 252.19 192.25 221.455 197.746C190.843 202.636 183.154 155.685 214.581 151.085Z"/>
	<path fill="#5EABE7" transform="scale(2 2)" d="M216.598 166.043C227.626 164.915 229.713 179.859 219.081 183.2C207.603 183.949 204.773 168.725 216.598 166.043Z"/>
	<path transform="scale(2 2)" d="M154.728 187.344C173.32 184.961 189.99 199.746 191.715 217.976C192.315 224.316 193.364 256.624 189.973 260.428C187.391 263.326 182.003 262.999 179.369 260.364C176.147 257.144 177.219 248.488 177.252 244.166C172.347 242.243 167.209 241.456 161.99 241.031C154.225 240.773 146.925 241.972 139.753 244.997C139.784 249.145 140.194 255.252 137.879 258.799C135.657 262.204 130.371 263.382 127.103 260.806C122.009 256.791 124.102 244.863 124.09 239.269C124.041 215.817 125.242 191.063 154.728 187.344Z"/>
	<path fill="#FEC302" transform="scale(2 2)" d="M156.22 202.332C172.616 201.218 177.097 214.456 177.252 228.187C171.278 227.106 165.506 226.122 159.413 226.052C152.66 225.812 146.138 227.135 139.753 229.245C139.913 216.625 139.779 204.873 156.22 202.332Z"/>
	<path transform="scale(2 2)" d="M83.2638 189.354C67.1025 188.367 72.7653 129.18 119.613 125.166C123.36 124.845 127.197 125.005 130.957 125.007L148 125.022L198.582 125.023C209.571 125.023 225.846 124.033 236.153 126.647C266.005 134.219 272.495 158.439 272.495 184.773L272.484 262.983C272.371 276.584 267.77 288.435 258.018 298.055C242.634 313.23 220.195 310.285 200.465 310.273L146.258 310.268C127.684 310.294 109.476 312.423 93.8981 299.93C77.9311 287.124 75.7286 273.736 75.7545 255.149L75.7188 223.943C75.6927 217.513 74.7525 211.021 83.2638 210.199C92.018 212.046 90.7197 217.254 90.7323 224.824L90.7318 248.859C90.7268 263.779 89.633 276.855 102.146 287.564C108.41 292.926 115.494 295.316 123.621 295.449L215.24 295.454C221.088 295.454 227.235 295.751 232.988 294.58C248.694 291.382 257.639 277.849 257.669 262.228L257.67 182.611C257.675 164.1 253.71 145.657 231.849 140.946C226.011 139.687 219.556 139.993 213.604 139.99L123.621 139.994C100.954 140.73 90.7427 156.107 90.7895 177.388C90.8028 183.455 90.8212 188.667 83.2638 189.354Z"/>
</svg>
